<?xml version="1.0" standalone="no"?>
<!DOCTYPE svg PUBLIC "-//W3C//DTD SVG 20010904//EN"
 "http://www.w3.org/TR/2001/REC-SVG-20010904/DTD/svg10.dtd">
<svg version="1.0" xmlns="http://www.w3.org/2000/svg"
 width="1280.000000pt" height="1224.000000pt" viewBox="0 0 1280.000000 1224.000000"
 preserveAspectRatio="xMidYMid meet">
<metadata>
Created by potrace 1.15, written by Peter Selinger 2001-2017
</metadata>
<g transform="translate(0.000000,1224.000000) scale(0.100000,-0.100000)"
fill="#009688" stroke="none">
<path d="M0 6748 l0 -5493 368 -98 c202 -53 619 -165 927 -248 682 -183 1387
-371 2125 -569 305 -82 640 -171 743 -199 104 -28 196 -51 207 -51 10 0 269
67 576 149 932 249 1675 448 1759 471 44 12 296 79 560 150 264 71 633 170
820 220 187 50 349 89 360 87 11 -2 250 -66 530 -141 609 -164 1673 -449 3000
-805 609 -163 781 -209 808 -217 16 -5 17 261 17 5488 l0 5494 -477 127 c-263
70 -739 197 -1058 283 -319 85 -832 223 -1140 305 -1364 366 -1678 449 -1698
449 -11 0 -153 -36 -316 -79 -163 -44 -584 -157 -936 -251 -1160 -311 -1713
-459 -2263 -606 l-542 -145 -153 41 c-225 61 -2897 777 -3842 1030 -187 50
-348 93 -357 96 -17 5 -18 -261 -18 -5488z m1685 4777 c2288 -613 2671 -715
2688 -715 8 0 167 41 354 91 186 50 556 149 823 220 267 72 735 197 1040 279
714 191 1482 397 1681 451 l157 42 358 -96 c198 -53 604 -162 904 -242 810
-217 1444 -387 2015 -540 281 -75 583 -156 672 -181 89 -24 165 -44 168 -44 6
0 7 -10445 0 -10452 -3 -3 -42 5 -88 17 -45 13 -343 93 -662 178 -319 86 -616
165 -660 177 -44 12 -262 70 -485 130 -223 60 -659 177 -970 260 -311 83 -715
192 -898 241 -184 49 -344 89 -355 89 -12 0 -89 -18 -172 -41 -162 -44 -791
-212 -1675 -449 -305 -82 -773 -207 -1040 -279 -267 -71 -639 -171 -826 -221
l-342 -91 -523 140 c-688 183 -1521 407 -2154 577 -280 75 -557 149 -615 164
-514 137 -798 214 -813 222 -16 8 -17 267 -17 5227 0 2870 2 5220 5 5223 5 4
219 -52 1430 -377z"/>
<path d="M560 11296 l0 -215 1103 -1143 c606 -629 1105 -1143 1108 -1143 4 0
311 314 683 698 l676 697 0 180 c0 98 -4 181 -8 184 -4 2 -203 57 -442 121
-607 163 -2017 540 -2725 730 -198 53 -368 98 -377 101 -17 5 -18 -10 -18
-210z"/>
<path d="M8670 9896 c0 -985 4 -1616 9 -1616 5 0 72 24 148 54 76 30 453 177
838 326 385 150 936 363 1225 476 289 112 710 275 935 363 l410 159 3 449 2
449 -532 142 c-293 79 -783 209 -1088 291 -960 257 -1914 513 -1932 518 -17 5
-18 -76 -18 -1611z"/>
<path d="M7880 11430 c-96 -26 -357 -96 -580 -156 -223 -59 -412 -114 -421
-123 -10 -9 -521 -807 -1138 -1775 l-1121 -1758 0 -307 0 -306 235 -117 235
-118 36 58 c115 178 2952 4629 2958 4640 11 19 -14 14 -204 -38z"/>
<path d="M7689 10427 c-268 -419 -917 -1436 -1442 -2260 l-956 -1498 482 -242
c265 -133 485 -242 489 -242 6 0 1307 1197 1775 1633 l143 134 0 1619 c0 890
-1 1619 -2 1619 -2 0 -222 -343 -489 -763z"/>
<path d="M6330 11015 c-230 -62 -1338 -360 -1557 -418 l-153 -40 0 -186 0
-186 519 -260 c286 -143 522 -257 524 -255 9 11 887 1392 887 1396 0 8 -27 2
-220 -51z"/>
<path d="M561 9023 l0 -1728 862 -893 c474 -491 865 -893 869 -895 7 -2 1668
1709 1668 1720 0 3 -33 41 -73 82 -1217 1265 -3319 3441 -3322 3441 -3 0 -5
-777 -4 -1727z"/>
<path d="M4620 8948 c0 -501 2 -909 4 -907 10 12 867 1361 871 1371 4 9 -143
87 -430 231 -239 119 -437 217 -440 217 -3 0 -5 -410 -5 -912z"/>
<path d="M3550 9175 c-311 -321 -565 -589 -565 -596 0 -13 1124 -1186 1138
-1188 4 -1 7 532 7 1184 0 652 -3 1185 -7 1185 -5 0 -262 -263 -573 -585z"/>
<path d="M11890 9221 c-364 -143 -794 -310 -1830 -711 -388 -150 -709 -276
-713 -280 -4 -4 565 -600 1264 -1326 700 -725 1353 -1402 1451 -1504 l178
-185 0 2068 c0 1647 -3 2067 -12 2066 -7 -1 -159 -58 -338 -128z"/>
<path d="M9060 8121 c-25 -10 -123 -48 -217 -85 l-173 -67 0 -1562 0 -1562
1746 -1810 c960 -995 1763 -1828 1785 -1850 l39 -40 0 1875 0 1875 -1466 1520
c-806 836 -1511 1566 -1567 1622 l-102 101 -45 -17z"/>
<path d="M7345 6874 c-457 -421 -838 -774 -849 -784 -18 -17 7 -31 833 -444
l851 -426 0 1210 c0 665 -1 1210 -3 1210 -1 0 -376 -345 -832 -766z"/>
<path d="M560 5345 c0 -894 2 -1625 4 -1625 9 0 1566 1611 1566 1621 0 8
-1558 1629 -1566 1629 -2 0 -4 -731 -4 -1625z"/>
<path d="M3303 6125 c-450 -465 -819 -849 -821 -854 -2 -5 242 -436 541 -958
299 -521 667 -1162 817 -1423 149 -261 276 -479 281 -485 5 -5 9 905 9 2278 0
1258 -2 2287 -4 2287 -2 0 -373 -380 -823 -845z"/>
<path d="M4620 4173 l0 -2508 23 -28 22 -28 910 406 c501 223 1291 575 1757
783 l848 377 -3 863 -2 863 -1773 889 c-975 490 -1775 890 -1778 890 -2 0 -4
-1128 -4 -2507z"/>
<path d="M1433 4196 l-873 -901 0 -805 0 -805 348 -93 c191 -51 597 -159 902
-241 305 -82 760 -204 1010 -271 639 -170 1272 -340 1293 -346 16 -5 17 28 17
596 l0 601 -901 1572 c-496 865 -907 1577 -913 1583 -8 8 -249 -234 -883 -890z"/>
<path d="M8672 3888 l3 -623 620 -57 c341 -32 637 -56 658 -55 l38 2 -651 675
c-358 371 -655 677 -660 678 -7 3 -9 -212 -8 -620z"/>
<path d="M8674 2995 c-2 -5 -3 -302 -2 -660 l3 -650 230 -61 c222 -60 931
-250 2105 -564 311 -83 705 -189 877 -235 172 -46 322 -86 333 -90 20 -6 21
-3 18 43 l-3 50 -885 918 c-487 504 -928 962 -980 1016 l-95 99 -710 64 c-390
36 -750 68 -799 73 -60 5 -89 5 -92 -3z"/>
<path d="M7435 2586 c-396 -176 -1144 -510 -1662 -741 -519 -231 -943 -423
-943 -427 0 -5 95 -123 211 -263 152 -184 216 -254 228 -251 9 3 237 64 506
136 270 73 681 183 915 246 234 62 665 177 958 256 l532 142 0 613 c0 484 -3
613 -12 612 -7 0 -337 -146 -733 -323z"/>
<path d="M4620 964 c0 -207 2 -235 15 -230 32 12 276 76 291 76 9 0 14 4 12
10 -4 12 -308 380 -314 380 -2 0 -4 -106 -4 -236z"/>
</g>
</svg>
